<?xml version="1.0" encoding="UTF-8"?>
<svg id="Warstwa_1" xmlns="http://www.w3.org/2000/svg" version="1.1" viewBox="0 0 323.149606 85.03937">
  <!-- Generator: Adobe Illustrator 29.4.0, SVG Export Plug-In . SVG Version: 2.1.0 Build 152)  -->
  <defs>
    <style>
      .st0 {
        fill: #1c8987;
      }
    </style>
  </defs>
  <g>
    <path class="st0" d="M.717137,26.210449C.717137,9.937012,14.110204,0,28.439305,0c5.18457,0,10.440918,1.080078,14.617188,3.240234l1.008301,8.568848c-3.384277-7.056641-9.792969-9.79248-15.625488-9.79248-9.072754,0-19.009766,6.840332-19.009766,24.193848s9.937012,24.482422,19.513672,24.482422c6.624512,0,11.737305-3.240234,15.985352-9.577148l-1.439941,7.993164c-4.17627,2.303711-9.648926,3.600586-15.049316,3.600586C14.110204,52.709473.717137,42.556152.717137,26.210449Z"/>
    <path class="st0" d="M50.296239,41.187988V11.520996c0-5.184082-.144043-7.632324-.503906-10.368652h22.25v4.248535c-3.744141-1.944336-7.560547-2.592285-12.024902-2.592285h-1.65625v16.489258c5.904297,0,8.568848-.21582,11.952637-.936035v3.52832c-3.383789-.720215-6.04834-.936035-11.952637-.936035v28.946777h2.160156c4.680176,0,8.136719-1.007812,11.520996-2.592773v4.249023h-22.25c.288086-2.952148.503906-5.329102.503906-10.369141Z"/>
    <path class="st0" d="M76.770848,41.187988V11.520996c0-5.256348-.216797-7.488281-.503906-10.368652h10.224609c11.232422,0,17.49707,4.320312,17.49707,11.088867,0,5.112305-4.896484,9.216797-10.224609,10.296875,2.736328.647949,4.320312,2.232422,5.760742,4.752441,4.248047,7.48877,6.335938,22.538086,9.144531,24.050781v.21582h-10.008789c-4.896484-20.306152-7.776367-26.714844-11.521484-27.362793v-.864258c5.760742-1.368164,8.28125-4.608398,8.28125-10.800781,0-6.120605-3.240234-9.720703-9.504883-9.720703h-1.080078v38.379395c0,5.256836.21582,7.488281.503906,10.369141h-9.072266c.287109-2.880859.503906-5.112305.503906-10.369141Z"/>
    <path class="st0" d="M118.380223,41.187988V2.736328c-4.537109.144043-7.993164,1.65625-10.15332,6.048828h-.288086l.719727-7.632812h27.506836l.719727,7.632812h-.359375c-2.160156-4.464844-5.617188-5.904785-10.081055-6.048828v38.45166c0,5.256836.21582,7.416992,1.223633,10.369141h-10.44043c.935547-2.808594,1.152344-5.112305,1.152344-10.369141Z"/>
    <path class="st0" d="M151.916356,41.187988v-12.817383l-9.072266-18.505371c-1.799805-3.672363-3.09668-6.264648-4.680664-8.712891h12.457031c-1.080078,2.52002-.431641,5.688477,1.512695,9.792969l7.488281,15.769043,8.208984-16.993164c1.583984-3.240234,1.799805-6.192871.791992-8.568848h5.543945l-13.537109,27.218262v12.817383c0,5.256836.21582,7.488281.503906,10.369141h-9.720703c.288086-2.880859.503906-5.112305.503906-10.369141Z"/>
    <path class="st0" d="M178.15952,41.187988V11.520996c0-5.256348-.216797-7.488281-.503906-10.368652h22.105957v4.248535c-3.816406-2.016602-7.705078-2.592285-11.953125-2.592285h-1.583984v17.569336h2.160156c4.463867,0,6.768555-.359863,9.648438-.936035v3.600098c-2.952148-.647949-5.18457-1.007812-9.648438-1.007812h-2.160156v15.985352c0,6.840332.072266,9.793457,1.87207,13.537598h-10.440918c.287109-2.880859.503906-5.112305.503906-10.369141Z"/>
    <path class="st0" d="M205.007664,41.187988V11.520996c0-5.256348-.21582-7.488281-.503906-10.368652h9.073242c-.288086,2.880371-.503906,5.112305-.503906,10.368652v29.666992c0,5.256836.21582,7.488281.503906,10.369141h-9.073242c.288086-2.880859.503906-5.112305.503906-10.369141Z"/>
    <path class="st0" d="M230.532079,24.194336v16.993652c0,5.256836.21582,7.488281.503906,10.369141h-9.072266c.287109-2.880859.503906-5.112305.503906-10.369141V11.520996c0-5.256348-.216797-7.488281-.503906-10.368652h9.072266c-.288086,2.880371-.503906,5.112305-.503906,10.368652v11.809082l11.161133-16.489258c1.295898-1.944336,2.303711-4.104492,2.664062-5.688477h6.480469c-2.087891,1.512207-4.680664,4.17627-7.056641,7.056641l-8.568359,10.729004c8.424805-.288086,14.472656,29.810547,17.857422,32.40332v.21582h-9.504883c-6.552734-21.242188-8.352539-26.714844-13.033203-27.362793Z"/>
    <path class="st0" d="M275.302586.432129h1.368164l16.848633,43.204102c1.008789,2.591797,1.87207,5.328125,3.168945,7.920898h-11.737305c1.080078-2.736328.288086-5.688477-1.368164-10.15332l-4.104492-10.729004h-13.537109l-3.816406,10.152832c-1.799805,4.825195-2.232422,7.920898-.719727,10.729492h-5.688477L275.302586.432129ZM278.830907,28.802734l-6.193359-16.129395-6.047852,16.129395h12.241211Z"/>
    <path class="st0" d="M303.927586,41.187988V2.736328c-4.537109.144043-7.993164,1.65625-10.15332,6.048828h-.288086l.719727-7.632812h27.506836l.719727,7.632812h-.359375c-2.160156-4.464844-5.617188-5.904785-10.081055-6.048828v38.45166c0,5.256836.21582,7.416992,1.223633,10.369141h-10.44043c.935547-2.808594,1.152344-5.112305,1.152344-10.369141Z"/>
  </g>
  <g>
    <path class="st0" d="M89.324071,80.743472v-9.432617c0-1.608398-.072266-2.400391-.264648-3.456055h3.216797c-.240234.935547-.264648,2.496094-.264648,3.456055v9.600586c0,1.896484.888672,3,2.736328,3,1.65625,0,2.520508-1.103516,2.520508-3v-9.600586c0-1.152344-.095703-2.496094-.383789-3.456055h1.320312c-.120117.695312-.216797,2.160156-.216797,3.456055v9.432617c0,2.976562-1.704102,4.295898-4.152344,4.295898-2.711914,0-4.511719-1.319336-4.511719-4.295898Z"/>
    <path class="st0" d="M100.133641,76.207339c0-5.424805,4.463867-8.737305,9.241211-8.737305,1.727539,0,3.479492.360352,4.87207,1.080078l.335938,2.856445c-1.12793-2.352539-3.264648-3.264648-5.208008-3.264648-3.024414,0-6.336914,2.280273-6.336914,8.06543,0,5.78418,3.3125,8.160156,6.504883,8.160156,2.208008,0,3.912109-1.080078,5.328125-3.192383l-.480469,2.665039c-1.391602.767578-3.21582,1.199219-5.015625,1.199219-4.777344,0-9.241211-3.383789-9.241211-8.832031Z"/>
    <path class="st0" d="M115.661961,84.607729l8.952148-16.201172h-3.047852c-3.3125,0-4.368164.599609-5.712891,1.368164l.648438-1.919922h11.329102l.023438.047852-8.952148,16.201172h3.887695c2.808594,0,4.081055-.503906,5.617188-1.728516l-.864258,2.280273h-11.857422l-.023438-.047852Z"/>
    <path class="st0" d="M129.92661,81.199526v-9.888672c0-1.728516-.047852-2.543945-.167969-3.456055h7.416016v1.416016c-1.248047-.648438-2.519531-.864258-4.007812-.864258h-.551758v5.496094c1.967773,0,2.855469-.071289,3.984375-.311523v1.175781c-1.128906-.240234-2.016602-.311523-3.984375-.311523v9.648438h.719727c1.560547,0,2.711914-.335938,3.839844-.864258v1.416016h-7.416016c.095703-.983398.167969-1.776367.167969-3.456055Z"/>
    <path class="st0" d="M140.48911,83.743472c1.392578,0,2.423828-.983398,2.423828-2.496094,0-1.488281-1.007812-2.688477-2.040039-4.056641s-2.255859-2.759766-2.255859-4.704102c0-2.688477,2.255859-4.680664,5.208008-4.680664l.552734,1.704102c-.408203-.551758-1.056641-.839844-1.848633-.839844-1.248047,0-2.087891.936523-2.087891,2.160156,0,1.368164,1.080078,2.375977,1.992188,3.600586,1.271484,1.704102,2.351562,3.264648,2.351562,5.088867,0,2.832031-2.231445,5.135742-5.904297,5.135742l-.431641-1.847656c.551758.695312,1.34375.935547,2.040039.935547Z"/>
    <path class="st0" d="M148.990086,81.199526v-12.817383c-1.512695.047852-2.664062.552734-3.384766,2.016602h-.095703l.240234-2.543945h9.168945l.239258,2.543945h-.119141c-.720703-1.488281-1.873047-1.96875-3.360352-2.016602v12.817383c0,1.751953.071289,2.472656.407227,3.456055h-3.479492c.311523-.935547.383789-1.704102.383789-3.456055Z"/>
    <path class="st0" d="M157.015477,81.199526v-9.792969c0-1.776367-.120117-2.639648-.52832-3.551758l1.368164-.072266c.120117,1.416016.671875,2.232422,1.65625,3.335938l4.272461,5.568359c.431641.52832.863281,1.032227,1.271484,1.776367v-6.624023c0-2.18457-.095703-3.09668-.576172-3.984375h1.536133c-.167969,1.055664-.239258,1.775391-.239258,3.456055v9.888672c0,1.704102.023438,2.423828.239258,3.456055h-1.248047c.144531-.456055.216797-.864258.216797-1.248047,0-1.007812-.408203-1.583984-1.632812-3.144531l-3.624023-4.776367c-1.080078-1.200195-1.631836-1.824219-2.016602-2.832031v8.569336c0,1.679688.047852,2.423828.552734,3.431641h-1.680664c.3125-1.055664.432617-1.776367.432617-3.456055Z"/>
    <path class="st0" d="M169.2645,81.199526v-9.888672c0-1.751953-.072266-2.496094-.167969-3.456055h3.024414c-.095703.959961-.167969,1.704102-.167969,3.456055v9.888672c0,1.751953.072266,2.496094.167969,3.456055h-3.024414c.095703-.959961.167969-1.704102.167969-3.456055Z"/>
    <path class="st0" d="M174.330907,76.207339c0-5.424805,4.463867-8.737305,9.241211-8.737305,1.727539,0,3.479492.360352,4.87207,1.080078l.335938,2.856445c-1.12793-2.352539-3.264648-3.264648-5.208008-3.264648-3.024414,0-6.336914,2.280273-6.336914,8.06543,0,5.78418,3.3125,8.160156,6.504883,8.160156,2.208008,0,3.912109-1.080078,5.328125-3.192383l-.480469,2.665039c-1.391602.767578-3.21582,1.199219-5.015625,1.199219-4.777344,0-9.241211-3.383789-9.241211-8.832031Z"/>
    <path class="st0" d="M193.381688,81.199526v-12.817383c-1.512695.047852-2.664062.552734-3.384766,2.016602h-.095703l.240234-2.543945h9.168945l.239258,2.543945h-.119141c-.720703-1.488281-1.873047-1.96875-3.360352-2.016602v12.817383c0,1.751953.071289,2.472656.407227,3.456055h-3.479492c.311523-.935547.383789-1.704102.383789-3.456055Z"/>
    <path class="st0" d="M210.938329,77.455386l-3.09668,7.44043h-.456055l-6.09668-14.401367c-.359375-.864258-.599609-1.751953-1.055664-2.639648h3.768555c-.264648.791992-.240234,1.463867.408203,2.975586l4.295898,10.225586,1.824219-4.416992-2.496094-6.144531c-.503906-1.248047-.719727-1.944336-1.055664-2.639648h3.767578c-.240234.935547-.143555,1.631836.360352,2.927734l1.223633,3.120117,1.080078-2.927734c.52832-1.44043.672852-2.352539.336914-3.120117h1.704102l-2.736328,6.887695,2.496094,6.313477,3.696289-9.553711c.647461-1.655273.671875-2.759766.167969-3.647461h2.064453l-6.745117,17.041016h-.479492l-2.976562-7.44043Z"/>
    <path class="st0" d="M226.215672,67.614565h.456055l5.616211,14.401367c.336914.863281.624023,1.775391,1.056641,2.639648h-3.912109c.359375-.912109.095703-1.895508-.456055-3.383789l-1.368164-3.576172h-4.512695l-1.272461,3.383789c-.599609,1.608398-.744141,2.640625-.239258,3.576172h-1.896484l6.52832-17.041016ZM227.39243,77.071597l-2.064453-5.376953-2.016602,5.376953h4.081055Z"/>
  </g>
</svg>