<?xml version="1.0" encoding="UTF-8"?>
<svg id="Warstwa_1" xmlns="http://www.w3.org/2000/svg" version="1.1" viewBox="0 0 270 36">
  <!-- Generator: Adobe Illustrator 29.3.1, SVG Export Plug-In . SVG Version: 2.1.0 Build 151)  -->
  <path d="M34.15324,13.66069l-1.42847,4.72904c-.48109,1.58423-.96316,3.16945-1.35256,4.81777h-.06901c-.31744-1.66704-.75613-3.16354-1.20666-4.7941l-1.30426-4.75171h-4.36823l-1.20074,14.21965h2.97426l.55502-5.39744c.08675-1.77154.16562-3.96403.23561-5.89922h.04535c.35096,1.87505.82416,3.89503,1.28355,5.56798l1.53199,5.49503h2.4981l1.74295-5.54334c.53432-1.67887,1.13173-3.69885,1.58522-5.52066h.05915c-.00789,2.08504.05619,4.13557.12323,5.8588l.22083,5.43785h3.41788l-1.05386-14.21965s-4.28936,0-4.28936,0Z"/>
  <polygon points="44.99248 21.86479 49.64462 21.86479 49.64462 19.25627 44.99248 19.25627 44.99248 16.29483 50.53877 16.29483 50.53877 13.66069 41.77768 13.66069 41.77768 27.88034 50.84241 27.88034 50.84241 25.24619 44.99248 25.24619 44.99248 21.86479"/>
  <rect x="67.26836" y="13.66069" width="3.2148" height="14.21965"/>
  <path d="M80.01616,16.07696c1.14948,0,2.06237.25533,2.70118.53531l.65558-2.54345c-.55798-.30364-1.82773-.62995-3.50069-.62995-4.29231,0-7.76836,2.68344-7.76836,7.53275,0,4.05276,2.53852,7.12954,7.46275,7.12954,1.71141,0,3.05904-.3273,3.63476-.6122l-.47813-2.52275c-.63685.26716-1.70352.45841-2.68935.45841-2.86187,0-4.54272-1.7883-4.54272-4.64031,0-3.16157,1.98843-4.70735,4.52498-4.70735Z"/>
  <path d="M88.55052,13.66069l-4.42245,14.21965h3.3262l1.0854-3.65054h4.08924l1.17511,3.65054h3.4652l-4.51018-14.21965s-4.20853,0-4.20853,0ZM89.00597,21.83423l.84979-3.01961c.22773-.82613.44264-1.90463.65164-2.7416h.04338c.21886.83204.47122,1.89871.71473,2.73766l.88528,3.02256h-3.14481v.00099Z"/>
  <polygon points="102.13628 13.66069 98.92049 13.66069 98.92049 27.88034 107.50316 27.88034 107.50316 25.18606 102.13628 25.18606 102.13628 13.66069"/>
  <polygon points="113.37872 16.35891 117.21755 16.35891 117.21755 27.88034 120.43137 27.88034 120.43137 16.35891 124.32442 16.35891 124.32442 13.66069 113.37872 13.66069 113.37872 16.35891"/>
  <rect x="138.78265" y="13.66069" width="3.21381" height="14.21965"/>
  <path d="M152.30335,20.23028v-.05422c1.60297-.59544,2.33642-1.77549,2.33642-3.02454,0-1.30524-.70192-2.2753-1.69563-2.80371-1.04005-.6053-2.24672-.79754-4.20655-.79754-1.61085,0-3.30549.14196-4.14937.30659v13.96136c.71965.10548,1.88985.20998,3.47308.20998,2.8323,0,4.54962-.45841,5.59263-1.2944.88133-.7029,1.47875-1.71732,1.47875-3.01961.00099-1.82083-1.20666-3.05805-2.82934-3.48393ZM147.77442,15.98429c.26421-.05225.65953-.09661,1.3634-.09661,1.45411,0,2.27234.56784,2.27234,1.64831,0,1.05681-.88921,1.76365-2.59372,1.76365h-1.04203v-3.31536h.00002ZM149.0087,25.65038c-.54418,0-.92471-.00789-1.23426-.05816v-3.99952h1.09822c1.60395.00197,2.87962.57178,2.87962,1.99434-.00002,1.49945-1.28554,2.06335-2.74358,2.06335Z"/>
  <path d="M165.37351,21.83817c0,2.52077-.92766,3.71067-2.61641,3.71067-1.63255,0-2.57697-1.25299-2.57697-3.71067v-8.17748h-3.21578v7.94088c0,4.52103,2.0939,6.51044,5.6853,6.51044,3.72054,0,5.93964-2.08504,5.93964-6.47101v-7.97933h-3.21578v8.1765Z"/>
  <path d="M179.83864,17.80611c0,2.14912.06211,4.06065.25927,5.93964l-.0562.00789c-.64079-1.60789-1.47184-3.38732-2.3236-4.87692l-2.95059-5.21604h-3.83095v14.21965h3.0344v-4.27457c0-2.32164-.04042-4.33372-.13999-6.21962l.06902-.00592c.69107,1.66507,1.62367,3.48886,2.47246,5.0238l3.04721,5.4763h3.45141v-14.21965h-3.0334v4.14543h.00096Z"/>
  <polygon points="188.62734 21.86479 193.2785 21.86479 193.2785 19.25627 188.62734 19.25627 188.62734 16.29483 194.17265 16.29483 194.17265 13.66069 185.41056 13.66069 185.41056 27.88034 194.4753 27.88034 194.4753 25.24619 188.62734 25.24619 188.62734 21.86479"/>
  <path d="M63.03223,15.02705c-1.36341-1.02921-3.12608-1.47579-5.82332-1.47579-1.61184,0-3.15171.11337-4.33569.30659v13.96136c.79163.10943,1.98251.20998,3.6535.20998,2.77216,0,5.06324-.59544,6.55875-1.84055,1.36637-1.15145,2.35121-3.03439,2.35121-5.76121-.00099-2.51387-.92669-4.29823-2.40445-5.40039ZM57.28877,25.51533c-.39236,0-.8419-.00197-1.12188-.05619v-9.31316c.28392-.06211.75712-.12323,1.46002-.12323,2.76428,0,4.49441,1.45509,4.48751,4.5092,0,3.39915-1.91449,5.00902-4.82565,4.98338Z"/>
  <path d="M133.48478,21.19146l.17055-.03845c1.22342-.4387,2.42613-1.68479,2.42613-3.48689,0-1.30919-.4318-2.2477-1.27962-2.92299-1.01443-.80444-2.44388-1.19187-4.55454-1.19187-1.70943,0-3.23945.13013-4.2726.30659v14.02347h3.18621v-5.50095h.95527c1.32398.01774,1.81098.43672,2.31769,2.18756.50376,1.74295,1.01244,3.30451.97696,3.31338h3.29367c-.02563-.00986-.64178-2.36994-1.14849-4.01234-.45939-1.3013-1.08638-2.27925-2.07123-2.67752ZM130.25519,19.97002h-1.2589v-3.91671c.22674-.05816.67826-.10746,1.4472-.10746,1.46987.00789,2.36205.67431,2.36205,1.97561,0,1.23623-.95429,2.04856-2.55036,2.04856Z"/>
  <path d="M10.55339,13.54731v3.73236c0,.39926-.29871.66938-.60924.81923-.30955.14787-3.66138,1.63648-3.66138,1.63648,0,0-3.98474,1.45607-3.98474,5.48715,0,3.25226,3.85263,3.79348,3.85263,3.79348v-2.97524c0-1.2668,1.04005-1.66507,1.04005-1.66507,0,0,1.67-.83993,3.42281-1.81591,2.73273-1.52508,4.11881-2.65879,4.09121-5.96232-.02859-3.39915-4.15134-3.05017-4.15134-3.05017Z"/>
  <path d="M10.55339,25.57349v3.2848c0,.63882-.48996.96809-.48996.96809-.93851.63882-1.9273,1.60592-2.27629,2.30488-.86655,1.73704-.81824,3.03439-.87838,3.24438-.06014.20801-.03253.47221.29871.60826.22674.09267.51066-.21787.8212-.84289.11238-.22674.52249-1.36144,1.18694-1.8159,2.59668-1.7676,4.06065-2.86089,4.06065-5.40434.00099-2.65781-2.72287-2.34727-2.72287-2.34727Z"/>
  <path d="M24.1983,1.65028c.34406-.17942.61615-.32138.66051-.48404.0138-.05028.00592-.09957-.02267-.14492-.03155-.05028-.07492-.10154-.16168-.10154-.09661,0-.24153.06408-.49784.22181l-.05816.03648c-.16365.10154-.31744.19717-.51658.28293-.25829.11238-.64079.22674-.87246.22674-.08577,0-.14393-.01676-.16168-.04436-.04338-.07492-.13407-.23068.40222-.68811.11436-.09858.2573-.2021.39433-.30265.3756-.27308.56784-.42095.4939-.54714-.03943-.06999-.09267-.10548-.15675-.10548-.06802,0-.13112.04042-.19322.07887l-.03155.01972c-.42785.25829-.64473.40518-.88035.64473-.2573.26322-.50179.63783-.70783,1.08442-.08379.18534-.29279.48109-.41306.64375l-.02662-.0276c-.05718-.05028-.11731-.09267-.20505-.139-.28195-.14492-.54122-.20111-.80542-.11041-.34208.1183-1.21159.43179-1.93913.80247-.7305.37166-1.6907.68713-1.88196,1.5655s.12126,1.0302-.05718,1.39002c-.18041.35786-.6753,1.36538-1.95589,1.64437-1.90561.41602-3.53224-.2573-5.35899-.58657-1.89181-.33913-7.65894-1.61677-7.67471,4.6137-.01577,5.43983,4.58018,5.60742,4.58018,5.60742v-4.78819s.04831-1.74098,3.18424-1.33876c2.68245.34406,3.92164.02267,5.01986-.34603,1.32989-.44461,2.09194-1.15737,3.61801-3.10932,0,0,.25237-.29082.55108-.35687.39926-.08971,1.17906.0207,1.60296-.37659.81331-.76501,1.26778-1.84942,1.80703-3.07678,0,0,.17646-.348,0-.7305-.03155-.06901-.07492-.14393-.11337-.21886.08774-.15872.348-.57868.73937-.7236l.03746-.0138c.1045-.03845.20308-.07394.37166-.0907.34701-.03549.74529-.15478,1.04104-.31152.06408-.0345.12717-.06802.18829-.09957Z"/>
  <polygon points="228.58117 26.50905 228.58117 26.3454 228.58117 13.62421 227.04327 13.62421 227.04327 27.74725 234.75544 27.74725 234.75544 26.50905 228.74384 26.50905 228.58117 26.50905"/>
  <path d="M206.64147,13.51577c-1.21947,0-2.33642.08873-3.41591.26125v13.97024h1.5379v-5.83416l.20407.05225c.43672.10746.98287.12323,1.46199.12323,1.81984,0,3.34691-.54517,4.29724-1.53691.7098-.73149,1.06864-1.73309,1.06864-2.97327,0-1.1968-.42786-2.227-1.21159-2.90328-.85176-.76796-2.17868-1.15934-3.94234-1.15934ZM206.46993,20.91346c-.68023,0-1.18399-.05028-1.58325-.15576l-.12323-.03056v-5.90021l.1321-.02563c.15774-.03056.75318-.13309,1.79027-.13309,2.26939,0,3.57265,1.09033,3.57265,2.99398.00002,2.03476-1.41662,3.25128-3.78854,3.25128Z"/>
  <path d="M219.14085,13.38761c-3.85461,0-6.5479,3.05411-6.5479,7.42628,0,4.22232,2.60457,7.16996,6.33299,7.16996h.0207c1.81196,0,3.44647-.67234,4.60187-1.88886,1.2589-1.3289,1.92434-3.25226,1.92434-5.55911.00099-4.27556-2.54443-7.14827-6.33199-7.14827ZM219.01071,26.78804h-.0207c-1.16624,0-2.21713-.43475-3.03537-1.26285-1.10315-1.11103-1.72915-2.84413-1.71633-4.75369,0-3.07876,1.48269-6.18807,4.79509-6.18807,3.27789,0,4.77242,3.13101,4.77242,6.0402-.00002,3.62885-1.97168,6.16442-4.7951,6.16442Z"/>
  <path d="M240.66059,19.87439c-1.97266-.78571-2.97623-1.45607-2.97623-2.93975,0-1.15934.89317-2.32854,2.88848-2.32854,1.15639,0,2.05053.3204,2.64795.62107l.41011-1.20962c-.4801-.25139-1.42454-.60727-2.99298-.60727-2.6578,0-4.51315,1.53691-4.51315,3.73828,0,1.79422,1.17808,3.04622,3.71265,3.94136,2.03575.76205,2.82934,1.61184,2.82934,3.02651,0,1.59804-1.25102,2.6302-3.1872,2.6302-1.10906,0-2.27727-.32138-3.24438-.87246l-.37659,1.25004c.8143.5008,2.25164.86063,3.49281.86063,3.61406,0,4.89565-2.1639,4.89565-4.01825-.00099-1.92434-1.03907-3.10833-3.58646-4.09219Z"/>
  <path d="M250.28922,19.5816l.08084-.09464,4.99917-5.86275h-1.88294c-.47813.58953-5.85782,6.96787-5.85782,6.96787v-6.96787h-1.53889v14.12304h1.53889v-5.40729l.04042-.04634,1.3713-1.5862.14098-.16365.12027.17942,4.71032,7.02406h1.81294l-5.46447-8.06214-.071-.10351Z"/>
  <path d="M263.60978,13.62421h-2.017l-4.79706,14.12304h1.58227l1.46298-4.4323.03646-.1114h5.35899l.03845.1114,1.50537,4.4323h1.6493l-4.81977-14.12304ZM264.7356,22.07083h-4.57918l.07296-.21787s1.41367-4.17993,1.41467-4.17993c.28097-.81627.48603-1.6424.68516-2.44191l.0404-.1597.02957-.1252h.29971l.03057.12323.03646.1459c.20112.78374.40913,1.59606.70881,2.48036l1.41665,4.15726.07296.21787h-.22874Z"/>
</svg>